<svg width="33" height="29" viewBox="0 0 33 29" fill="none" xmlns="http://www.w3.org/2000/svg">
<g filter="url(#filter0_ii_188878_464)">
<path d="M30.2778 1C31.2304 1 32 1.7541 32 2.6875V26.3125C32 27.2459 31.2304 28 30.2778 28C29.3252 28 28.5556 27.2459 28.5556 26.3125V2.6875C28.5556 1.7541 29.3252 1 30.2778 1ZM23.3889 6.0625C24.3415 6.0625 25.1111 6.8166 25.1111 7.75V26.3125C25.1111 27.2459 24.3415 28 23.3889 28C22.4363 28 21.6667 27.2459 21.6667 26.3125V7.75C21.6667 6.8166 22.4363 6.0625 23.3889 6.0625ZM18.2222 12.8125V26.3125C18.2222 27.2459 17.4526 28 16.5 28C15.5474 28 14.7778 27.2459 14.7778 26.3125V12.8125C14.7778 11.8791 15.5474 11.125 16.5 11.125C17.4526 11.125 18.2222 11.8791 18.2222 12.8125ZM9.61111 16.1875C10.5637 16.1875 11.3333 16.9416 11.3333 17.875V26.3125C11.3333 27.2459 10.5637 28 9.61111 28C8.65851 28 7.88889 27.2459 7.88889 26.3125V17.875C7.88889 16.9416 8.65851 16.1875 9.61111 16.1875ZM4.44444 22.9375V26.3125C4.44444 27.2459 3.67483 28 2.72222 28C1.76962 28 1 27.2459 1 26.3125V22.9375C1 22.0041 1.76962 21.25 2.72222 21.25C3.67483 21.25 4.44444 22.0041 4.44444 22.9375Z" stroke="url(#paint0_linear_188878_464)" stroke-width="2"/>
</g>
<defs>
<filter id="filter0_ii_188878_464" x="-0.5" y="-0.5" width="34" height="30" filterUnits="userSpaceOnUse" color-interpolation-filters="sRGB">
<feFlood flood-opacity="0" result="BackgroundImageFix"/>
<feBlend mode="normal" in="SourceGraphic" in2="BackgroundImageFix" result="shape"/>
<feColorMatrix in="SourceAlpha" type="matrix" values="0 0 0 0 0 0 0 0 0 0 0 0 0 0 0 0 0 0 127 0" result="hardAlpha"/>
<feOffset dx="-0.5" dy="-0.5"/>
<feGaussianBlur stdDeviation="0.25"/>
<feComposite in2="hardAlpha" operator="arithmetic" k2="-1" k3="1"/>
<feColorMatrix type="matrix" values="0 0 0 0 1 0 0 0 0 1 0 0 0 0 1 0 0 0 0.4 0"/>
<feBlend mode="normal" in2="shape" result="effect1_innerShadow_188878_464"/>
<feColorMatrix in="SourceAlpha" type="matrix" values="0 0 0 0 0 0 0 0 0 0 0 0 0 0 0 0 0 0 127 0" result="hardAlpha"/>
<feOffset dx="0.5" dy="0.5"/>
<feGaussianBlur stdDeviation="0.25"/>
<feComposite in2="hardAlpha" operator="arithmetic" k2="-1" k3="1"/>
<feColorMatrix type="matrix" values="0 0 0 0 0.127604 0 0 0 0 0.267969 0 0 0 0 0.408333 0 0 0 0.4 0"/>
<feBlend mode="normal" in2="effect1_innerShadow_188878_464" result="effect2_innerShadow_188878_464"/>
</filter>
<linearGradient id="paint0_linear_188878_464" x1="3.37818" y1="7.1875" x2="30.2046" y2="27.4535" gradientUnits="userSpaceOnUse">
<stop offset="0.130987" stop-color="white"/>
<stop offset="1" stop-color="#5B80A3"/>
</linearGradient>
</defs>
</svg>
