<svg width="194" height="37" viewBox="0 0 194 37" fill="none" xmlns="http://www.w3.org/2000/svg">
<path d="M186.679 0H7.32075C3.27761 0 0 3.0119 0 6.72727V30.2727C0 33.9881 3.27761 37 7.32075 37H186.679C190.722 37 194 33.9881 194 30.2727V6.72727C194 3.0119 190.722 0 186.679 0Z" fill="black"/>
<path d="M20.0203 20.933H31.0702V26.1189H13V20.933H18.0796L25.0734 17.1859H13V12H31.0702V17.1859L20.0203 20.933Z" fill="white"/>
<path d="M25.0132 12H13V17.1859H25.0132V12Z" fill="#6300FF"/>
<path d="M31.0688 20.9331H20.0762V26.119H31.0688V20.9331Z" fill="#FF4400"/>
<path d="M130 22.7502V20.8453L133.462 16.8708C134.03 16.2209 134.45 15.7608 134.723 15.4879C134.439 15.5051 134.066 15.5169 133.601 15.5222L130.34 15.5393V13.5132H137.977V15.2441L134.445 19.3148L133.202 20.6634C133.881 20.6225 134.3 20.6028 134.464 20.6028H138.247V22.7515H130.003L130 22.7502Z" fill="white"/>
<path d="M144.17 19.8108L146.605 20.2194C146.291 21.1119 145.798 21.7921 145.122 22.2588C144.447 22.7254 143.6 22.9588 142.587 22.9588C140.981 22.9588 139.792 22.4341 139.021 21.3848C138.412 20.5437 138.107 19.4825 138.107 18.2012C138.107 16.6707 138.507 15.4711 139.307 14.605C140.107 13.7389 141.118 13.3052 142.343 13.3052C143.716 13.3052 144.801 13.7587 145.596 14.6669C146.391 15.5739 146.771 16.9647 146.735 18.8379H140.612C140.629 19.5629 140.827 20.1272 141.204 20.5292C141.581 20.9326 142.05 21.1343 142.613 21.1343C142.995 21.1343 143.317 21.0302 143.578 20.8206C143.839 20.6123 144.036 20.2761 144.17 19.8121V19.8108ZM144.31 17.3404C144.293 16.6325 144.109 16.0946 143.761 15.7268C143.413 15.359 142.99 15.1745 142.492 15.1745C141.958 15.1745 141.518 15.3682 141.17 15.7571C140.822 16.146 140.65 16.6733 140.657 17.3404H144.31Z" fill="white"/>
<path d="M149.485 16.3319L147.268 15.9311C147.517 15.0387 147.947 14.3769 148.554 13.9485C149.164 13.5201 150.068 13.3052 151.267 13.3052C152.358 13.3052 153.17 13.4344 153.702 13.6927C154.236 13.9511 154.611 14.278 154.828 14.6762C155.046 15.073 155.154 15.802 155.154 16.8632L155.127 19.7159C155.127 20.5279 155.167 21.1264 155.245 21.5113C155.322 21.8976 155.469 22.3102 155.684 22.7505H153.266C153.203 22.5883 153.124 22.3471 153.031 22.0281C152.99 21.8831 152.961 21.7882 152.944 21.7407C152.526 22.1467 152.081 22.4512 151.605 22.6543C151.129 22.8573 150.621 22.9588 150.082 22.9588C149.132 22.9588 148.382 22.7004 147.835 22.185C147.286 21.6695 147.013 21.017 147.013 20.2287C147.013 19.7066 147.139 19.2413 147.388 18.8326C147.637 18.424 147.986 18.1102 148.436 17.894C148.885 17.6765 149.533 17.4867 150.38 17.3245C151.522 17.1097 152.314 16.9106 152.754 16.7247V16.4809C152.754 16.0116 152.638 15.6767 152.406 15.4763C152.174 15.276 151.737 15.1758 151.093 15.1758C150.658 15.1758 150.32 15.2615 150.076 15.4328C149.832 15.6042 149.635 15.9035 149.484 16.3332L149.485 16.3319ZM152.756 18.3146C152.442 18.4187 151.946 18.5439 151.269 18.6889C150.591 18.8339 150.147 18.9763 149.939 19.1147C149.62 19.3402 149.46 19.6275 149.46 19.9756C149.46 20.3236 149.588 20.6136 149.842 20.8627C150.098 21.1119 150.422 21.2371 150.817 21.2371C151.257 21.2371 151.677 21.0921 152.078 20.8021C152.373 20.582 152.569 20.3117 152.661 19.9927C152.724 19.7844 152.757 19.3876 152.757 18.801V18.3132L152.756 18.3146Z" fill="white"/>
<path d="M156.392 22.7502V10H158.836V14.5915C159.59 13.7333 160.482 13.3049 161.514 13.3049C162.639 13.3049 163.569 13.7122 164.306 14.5269C165.043 15.3416 165.411 16.5109 165.411 18.0361C165.411 19.5613 165.035 20.8282 164.285 21.6798C163.534 22.5313 162.623 22.9585 161.55 22.9585C161.023 22.9585 160.502 22.8266 159.989 22.563C159.476 22.2993 159.033 21.9091 158.663 21.3937V22.7502H156.393H156.392ZM158.818 17.9319C158.818 18.889 158.969 19.5956 159.271 20.0543C159.694 20.7042 160.257 21.0285 160.958 21.0285C161.497 21.0285 161.957 20.7978 162.337 20.3365C162.717 19.8751 162.906 19.1487 162.906 18.1574C162.906 17.1028 162.715 16.3408 162.333 15.8742C161.951 15.4075 161.46 15.1742 160.863 15.1742C160.266 15.1742 159.79 15.4022 159.402 15.857C159.014 16.3118 158.82 17.0039 158.82 17.9319H158.818Z" fill="white"/>
<path d="M172.387 22.7502V21.3674C172.051 21.8604 171.609 22.2493 171.061 22.5327C170.513 22.8174 169.935 22.9585 169.326 22.9585C168.717 22.9585 168.149 22.8227 167.656 22.5498C167.163 22.277 166.807 21.8947 166.586 21.4016C166.365 20.9086 166.255 20.2271 166.255 19.3583V13.5132H168.699V17.758C168.699 19.0565 168.744 19.8527 168.833 20.1453C168.923 20.438 169.086 20.67 169.325 20.8414C169.562 21.0127 169.864 21.0984 170.229 21.0984C170.647 21.0984 171.02 20.9837 171.351 20.7544C171.682 20.525 171.907 20.2416 172.03 19.9028C172.151 19.564 172.213 18.7335 172.213 17.4113V13.5132H174.657V22.7502H172.387Z" fill="white"/>
<path d="M178.459 22.7505H176.015V13.5135H178.285V14.8264C178.674 14.2055 179.023 13.7969 179.333 13.6005C179.643 13.4027 179.995 13.3052 180.39 13.3052C180.947 13.3052 181.483 13.4594 182 13.7666L181.243 15.8969C180.832 15.6306 180.448 15.4961 180.095 15.4961C179.742 15.4961 179.464 15.591 179.225 15.7782C178.988 15.9667 178.801 16.3068 178.664 16.7999C178.528 17.2929 178.459 18.3251 178.459 19.8965V22.7492V22.7505Z" fill="white"/>
<path d="M46.522 13.2C47.5767 13.2 48.4867 13.4007 49.252 13.802C50.0267 14.2033 50.624 14.7773 51.044 15.524C51.4733 16.2613 51.688 17.134 51.688 18.142C51.688 19.1407 51.4733 20.004 51.044 20.732C50.624 21.46 50.0267 22.02 49.252 22.412C48.4867 22.804 47.5767 23 46.522 23H43.022V13.2H46.522ZM46.522 21.614C47.642 21.614 48.5007 21.3107 49.098 20.704C49.7047 20.088 50.008 19.234 50.008 18.142C50.008 17.0407 49.7047 16.1727 49.098 15.538C48.5007 14.9033 47.642 14.586 46.522 14.586H44.688V21.614H46.522ZM56.3006 23.098C55.6006 23.098 54.9846 22.944 54.4526 22.636C53.9299 22.328 53.5192 21.8987 53.2206 21.348C52.9312 20.7973 52.7866 20.1627 52.7866 19.444C52.7866 18.7627 52.9312 18.156 53.2206 17.624C53.5099 17.092 53.9112 16.672 54.4246 16.364C54.9379 16.056 55.5212 15.902 56.1746 15.902C56.8372 15.902 57.4206 16.0467 57.9246 16.336C58.4286 16.6253 58.8206 17.0313 59.1006 17.554C59.3899 18.0673 59.5346 18.6647 59.5346 19.346C59.5346 19.458 59.5299 19.5793 59.5206 19.71C59.5112 19.8313 59.4972 19.962 59.4786 20.102H54.4946C54.5412 20.4287 54.6439 20.7133 54.8026 20.956C54.9706 21.1893 55.1806 21.3713 55.4326 21.502C55.6846 21.6327 55.9739 21.698 56.3006 21.698C56.6926 21.698 57.0426 21.6187 57.3506 21.46C57.6679 21.3013 57.8872 21.0913 58.0086 20.83L59.3946 21.292C59.1146 21.852 58.6992 22.2953 58.1486 22.622C57.5979 22.9393 56.9819 23.098 56.3006 23.098ZM57.8126 18.814C57.8032 18.5247 57.7239 18.2633 57.5746 18.03C57.4252 17.7967 57.2292 17.6147 56.9866 17.484C56.7439 17.344 56.4732 17.274 56.1746 17.274C55.9132 17.274 55.6659 17.3393 55.4326 17.47C55.1992 17.6007 54.9986 17.7827 54.8306 18.016C54.6719 18.24 54.5692 18.506 54.5226 18.814H57.8126ZM62.4259 21.964L62.6079 21.922V25.8H61.0259V16H62.4539L62.5659 16.868C62.7992 16.5973 63.1026 16.3687 63.4759 16.182C63.8492 15.9953 64.3019 15.902 64.8339 15.902C65.4406 15.902 65.9772 16.0513 66.4439 16.35C66.9199 16.6487 67.2886 17.0687 67.5499 17.61C67.8206 18.142 67.9559 18.772 67.9559 19.5C67.9559 20.2187 67.8206 20.8487 67.5499 21.39C67.2886 21.9313 66.9246 22.3513 66.4579 22.65C65.9912 22.9487 65.4499 23.098 64.8339 23.098C64.2739 23.098 63.7886 22.9907 63.3779 22.776C62.9672 22.552 62.6499 22.2813 62.4259 21.964ZM66.2619 19.5C66.2619 18.856 66.0892 18.3333 65.7439 17.932C65.4079 17.5307 64.9739 17.33 64.4419 17.33C64.1059 17.33 63.7979 17.414 63.5179 17.582C63.2472 17.75 63.0279 17.9927 62.8599 18.31C62.6919 18.6273 62.6079 19.024 62.6079 19.5C62.6079 19.9667 62.6919 20.3633 62.8599 20.69C63.0279 21.0073 63.2472 21.25 63.5179 21.418C63.7979 21.586 64.1059 21.67 64.4419 21.67C64.9739 21.67 65.4079 21.4693 65.7439 21.068C66.0892 20.6667 66.2619 20.144 66.2619 19.5ZM69.4341 12.92H71.0161V23H69.4341V12.92ZM75.9877 23.098C75.3157 23.098 74.7137 22.9533 74.1817 22.664C73.6497 22.3653 73.2344 21.95 72.9357 21.418C72.6371 20.8767 72.4877 20.242 72.4877 19.514C72.4877 18.7767 72.6417 18.1373 72.9497 17.596C73.2577 17.0547 73.6824 16.6393 74.2237 16.35C74.7651 16.0513 75.3671 15.902 76.0297 15.902C76.7017 15.902 77.3037 16.0513 77.8357 16.35C78.3771 16.6393 78.8064 17.0547 79.1237 17.596C79.4411 18.128 79.5997 18.758 79.5997 19.486C79.5997 20.2233 79.4364 20.8627 79.1097 21.404C78.7924 21.9453 78.3584 22.3653 77.8077 22.664C77.2664 22.9533 76.6597 23.098 75.9877 23.098ZM75.9737 21.684C76.3004 21.684 76.6084 21.6047 76.8977 21.446C77.1964 21.2873 77.4391 21.0493 77.6257 20.732C77.8124 20.4053 77.9057 19.99 77.9057 19.486C77.9057 19.0007 77.8171 18.5993 77.6397 18.282C77.4624 17.9553 77.2291 17.7127 76.9397 17.554C76.6504 17.3953 76.3377 17.316 76.0017 17.316C75.6751 17.316 75.3717 17.3953 75.0917 17.554C74.8211 17.7127 74.6017 17.9553 74.4337 18.282C74.2657 18.5993 74.1817 19.01 74.1817 19.514C74.1817 19.9993 74.2611 20.4053 74.4197 20.732C74.5877 21.0493 74.8071 21.2873 75.0777 21.446C75.3484 21.6047 75.6471 21.684 75.9737 21.684ZM85.7201 16H87.3861L83.2701 25.8H81.7021L82.9621 22.804L80.2321 16H81.9821L83.8301 20.956L85.7201 16ZM91.5467 23.098C90.8467 23.098 90.2307 22.944 89.6987 22.636C89.176 22.328 88.7653 21.8987 88.4667 21.348C88.1773 20.7973 88.0327 20.1627 88.0327 19.444C88.0327 18.7627 88.1773 18.156 88.4667 17.624C88.756 17.092 89.1573 16.672 89.6707 16.364C90.184 16.056 90.7673 15.902 91.4207 15.902C92.0833 15.902 92.6667 16.0467 93.1707 16.336C93.6747 16.6253 94.0667 17.0313 94.3467 17.554C94.636 18.0673 94.7807 18.6647 94.7807 19.346C94.7807 19.458 94.776 19.5793 94.7667 19.71C94.7573 19.8313 94.7433 19.962 94.7247 20.102H89.7407C89.7873 20.4287 89.89 20.7133 90.0487 20.956C90.2167 21.1893 90.4267 21.3713 90.6787 21.502C90.9307 21.6327 91.22 21.698 91.5467 21.698C91.9387 21.698 92.2887 21.6187 92.5967 21.46C92.914 21.3013 93.1333 21.0913 93.2547 20.83L94.6407 21.292C94.3607 21.852 93.9453 22.2953 93.3947 22.622C92.844 22.9393 92.228 23.098 91.5467 23.098ZM93.0587 18.814C93.0493 18.5247 92.97 18.2633 92.8207 18.03C92.6713 17.7967 92.4753 17.6147 92.2327 17.484C91.99 17.344 91.7193 17.274 91.4207 17.274C91.1593 17.274 90.912 17.3393 90.6787 17.47C90.4453 17.6007 90.2447 17.7827 90.0767 18.016C89.918 18.24 89.8153 18.506 89.7687 18.814H93.0587ZM101.424 17.036L101.242 17.078V12.92H102.824V23H101.396L101.284 22.132C101.041 22.4027 100.733 22.6313 100.36 22.818C99.9867 23.0047 99.5433 23.098 99.03 23.098C98.4047 23.098 97.854 22.9487 97.378 22.65C96.9113 22.3513 96.5473 21.9313 96.286 21.39C96.0247 20.8487 95.894 20.2187 95.894 19.5C95.894 18.7813 96.0247 18.1513 96.286 17.61C96.5473 17.0687 96.9113 16.6487 97.378 16.35C97.854 16.0513 98.4047 15.902 99.03 15.902C99.5807 15.902 100.061 16.014 100.472 16.238C100.883 16.4527 101.2 16.7187 101.424 17.036ZM97.588 19.5C97.588 20.144 97.756 20.6667 98.092 21.068C98.428 21.4693 98.8667 21.67 99.408 21.67C99.7347 21.67 100.033 21.586 100.304 21.418C100.584 21.25 100.808 21.0073 100.976 20.69C101.153 20.3633 101.242 19.9667 101.242 19.5C101.242 19.0333 101.153 18.6413 100.976 18.324C100.808 17.9973 100.584 17.75 100.304 17.582C100.033 17.414 99.7347 17.33 99.408 17.33C98.8667 17.33 98.428 17.5307 98.092 17.932C97.756 18.3333 97.588 18.856 97.588 19.5ZM111.726 23.098C111.054 23.098 110.452 22.9533 109.92 22.664C109.388 22.3653 108.973 21.95 108.674 21.418C108.375 20.8767 108.226 20.242 108.226 19.514C108.226 18.7767 108.38 18.1373 108.688 17.596C108.996 17.0547 109.421 16.6393 109.962 16.35C110.503 16.0513 111.105 15.902 111.768 15.902C112.44 15.902 113.042 16.0513 113.574 16.35C114.115 16.6393 114.545 17.0547 114.862 17.596C115.179 18.128 115.338 18.758 115.338 19.486C115.338 20.2233 115.175 20.8627 114.848 21.404C114.531 21.9453 114.097 22.3653 113.546 22.664C113.005 22.9533 112.398 23.098 111.726 23.098ZM111.712 21.684C112.039 21.684 112.347 21.6047 112.636 21.446C112.935 21.2873 113.177 21.0493 113.364 20.732C113.551 20.4053 113.644 19.99 113.644 19.486C113.644 19.0007 113.555 18.5993 113.378 18.282C113.201 17.9553 112.967 17.7127 112.678 17.554C112.389 17.3953 112.076 17.316 111.74 17.316C111.413 17.316 111.11 17.3953 110.83 17.554C110.559 17.7127 110.34 17.9553 110.172 18.282C110.004 18.5993 109.92 19.01 109.92 19.514C109.92 19.9993 109.999 20.4053 110.158 20.732C110.326 21.0493 110.545 21.2873 110.816 21.446C111.087 21.6047 111.385 21.684 111.712 21.684ZM116.821 16H118.249L118.361 16.686C118.594 16.4433 118.869 16.252 119.187 16.112C119.513 15.972 119.863 15.902 120.237 15.902C120.787 15.902 121.259 16.0187 121.651 16.252C122.052 16.476 122.36 16.812 122.575 17.26C122.789 17.6987 122.897 18.2493 122.897 18.912V23H121.315V19.122C121.315 18.534 121.193 18.0907 120.951 17.792C120.717 17.4933 120.363 17.344 119.887 17.344C119.401 17.344 119.033 17.498 118.781 17.806C118.529 18.1047 118.403 18.548 118.403 19.136V23H116.821V16Z" fill="white"/>
</svg>
