<svg width="37" height="29" viewBox="0 0 37 29" fill="none" xmlns="http://www.w3.org/2000/svg">
<g id="Primary" filter="url(#filter0_ii_188877_307)">
<path d="M31.3702 2.44925C31.36 2.42875 31.3429 2.41269 31.3222 2.40394C28.9233 1.27168 26.3917 0.464294 23.7909 0.0019804C23.7673 -0.00253862 23.7428 0.000721454 23.7211 0.011297C23.6994 0.0218725 23.6815 0.039225 23.6699 0.0608868C23.3252 0.704513 23.0122 1.36562 22.7323 2.0417C19.9287 1.6039 17.077 1.6039 14.2735 2.0417C13.9917 1.36391 13.6737 0.702632 13.3211 0.0608868C13.309 0.0396958 13.291 0.0227429 13.2694 0.0122361C13.2478 0.00172924 13.2236 -0.00184452 13.2 0.0019804C10.5989 0.463323 8.06723 1.27077 5.66862 2.404C5.64809 2.41296 5.63077 2.42825 5.61904 2.44776C0.8223 9.81676 -0.491708 17.0046 0.1529 24.1034C0.154713 24.1208 0.159909 24.1376 0.168179 24.1529C0.176449 24.1682 0.187623 24.1816 0.201038 24.1924C2.99413 26.3199 6.11825 27.9438 9.44006 28.9948C9.46345 29.002 9.48843 29.0017 9.51164 28.9939C9.53485 28.9861 9.55517 28.9711 9.56987 28.9511C10.2833 27.9524 10.9155 26.8949 11.46 25.7894C11.4674 25.7742 11.4717 25.7576 11.4725 25.7406C11.4733 25.7236 11.4705 25.7066 11.4645 25.6908C11.4584 25.675 11.4492 25.6607 11.4373 25.6488C11.4255 25.6369 11.4114 25.6277 11.3958 25.6219C10.399 25.2295 9.43384 24.7565 8.50958 24.2073C8.49279 24.1971 8.47869 24.1829 8.46852 24.1658C8.45835 24.1487 8.45243 24.1293 8.45128 24.1093C8.45013 24.0893 8.45379 24.0693 8.46192 24.0511C8.47006 24.0329 8.48243 24.017 8.49794 24.0049C8.69187 23.8555 8.88594 23.7 9.07113 23.5429C9.08758 23.529 9.10749 23.5201 9.12861 23.5171C9.14973 23.5142 9.17123 23.5174 9.19068 23.5264C15.2459 26.3692 21.8016 26.3692 27.7851 23.5264C27.8046 23.5168 27.8264 23.5132 27.8478 23.5158C27.8692 23.5185 27.8895 23.5274 27.9062 23.5414C28.0915 23.6985 28.2855 23.8555 28.4808 24.0049C28.4964 24.0169 28.5089 24.0327 28.5172 24.0508C28.5254 24.0689 28.5292 24.0889 28.5282 24.1089C28.5272 24.1289 28.5214 24.1483 28.5114 24.1655C28.5014 24.1827 28.4874 24.197 28.4706 24.2073C27.5485 24.7611 26.5825 25.2338 25.583 25.6204C25.5675 25.6265 25.5534 25.6358 25.5416 25.6479C25.5299 25.66 25.5207 25.6745 25.5148 25.6904C25.5088 25.7064 25.5062 25.7234 25.5072 25.7405C25.5081 25.7575 25.5125 25.7742 25.5201 25.7894C26.0737 26.8888 26.7049 27.9449 27.4087 28.9493C27.423 28.9699 27.4432 28.9854 27.4665 28.9935C27.4898 29.0016 27.515 29.002 27.5385 28.9946C30.8663 27.9471 33.9959 26.3231 36.7925 24.1924C36.8061 24.1822 36.8174 24.1691 36.8257 24.154C36.834 24.1389 36.8391 24.1221 36.8406 24.1049C37.6123 15.8979 35.5486 8.769 31.3702 2.44925ZM12.3643 19.7809C10.5412 19.7809 9.03903 18.0599 9.03903 15.9463C9.03903 13.8326 10.5121 12.1115 12.3643 12.1115C14.2309 12.1115 15.7186 13.8476 15.6894 15.9461C15.6894 18.0599 14.2163 19.7809 12.3643 19.7809ZM24.6586 19.7809C22.8356 19.7809 21.3335 18.0599 21.3335 15.9463C21.3335 13.8326 22.8065 12.1115 24.6586 12.1115C26.5254 12.1115 28.013 13.8476 27.9839 15.9461C27.9839 18.0599 26.5254 19.7809 24.6586 19.7809Z" fill="#31456A"/>
</g>
<defs>
<filter id="filter0_ii_188877_307" x="-0.5" y="-0.5" width="38.5" height="30.5" filterUnits="userSpaceOnUse" color-interpolation-filters="sRGB">
<feFlood flood-opacity="0" result="BackgroundImageFix"/>
<feBlend mode="normal" in="SourceGraphic" in2="BackgroundImageFix" result="shape"/>
<feColorMatrix in="SourceAlpha" type="matrix" values="0 0 0 0 0 0 0 0 0 0 0 0 0 0 0 0 0 0 127 0" result="hardAlpha"/>
<feOffset dx="-0.5" dy="-0.5"/>
<feGaussianBlur stdDeviation="0.25"/>
<feComposite in2="hardAlpha" operator="arithmetic" k2="-1" k3="1"/>
<feColorMatrix type="matrix" values="0 0 0 0 1 0 0 0 0 1 0 0 0 0 1 0 0 0 0.1 0"/>
<feBlend mode="normal" in2="shape" result="effect1_innerShadow_188877_307"/>
<feColorMatrix in="SourceAlpha" type="matrix" values="0 0 0 0 0 0 0 0 0 0 0 0 0 0 0 0 0 0 127 0" result="hardAlpha"/>
<feOffset dx="1" dy="1"/>
<feGaussianBlur stdDeviation="0.5"/>
<feComposite in2="hardAlpha" operator="arithmetic" k2="-1" k3="1"/>
<feColorMatrix type="matrix" values="0 0 0 0 0.113021 0 0 0 0 0.129167 0 0 0 0 0.145312 0 0 0 0.5 0"/>
<feBlend mode="normal" in2="effect1_innerShadow_188877_307" result="effect2_innerShadow_188877_307"/>
</filter>
</defs>
</svg>
