<svg width="38" height="29" viewBox="0 0 38 29" fill="none" xmlns="http://www.w3.org/2000/svg">
<g filter="url(#filter0_ii_188877_419)">
<path d="M32.2181 2.44523C32.2075 2.42477 32.19 2.40873 32.1687 2.39999C29.705 1.26959 27.105 0.463532 24.4339 0.00197715C24.4096 -0.00253446 24.3845 0.00072027 24.3622 0.0112784C24.3399 0.0218366 24.3215 0.0391607 24.3096 0.0607869C23.9556 0.703357 23.6342 1.36338 23.3467 2.03835C20.4674 1.60127 17.5386 1.60127 14.6593 2.03835C14.3698 1.36167 14.0433 0.701478 13.6811 0.0607869C13.6687 0.0396306 13.6502 0.0227056 13.628 0.012216C13.6059 0.0017264 13.581 -0.0018415 13.5568 0.00197715C10.8854 0.462563 8.28526 1.26869 5.82183 2.40006C5.80074 2.409 5.78295 2.42426 5.77091 2.44374C0.844525 9.80065 -0.504997 16.9767 0.157032 24.0638C0.158895 24.0812 0.164231 24.098 0.172724 24.1133C0.181218 24.1285 0.192694 24.1419 0.206471 24.1527C3.07506 26.2766 6.28361 27.8979 9.6952 28.9472C9.71922 28.9544 9.74488 28.9541 9.76871 28.9463C9.79255 28.9385 9.81342 28.9236 9.82852 28.9035C10.5613 27.9065 11.2105 26.8508 11.7697 25.7471C11.7774 25.7319 11.7818 25.7153 11.7826 25.6984C11.7834 25.6814 11.7806 25.6645 11.7743 25.6486C11.7681 25.6328 11.7586 25.6185 11.7465 25.6067C11.7343 25.5948 11.7198 25.5857 11.7038 25.5798C10.68 25.1881 9.68881 24.7158 8.73957 24.1675C8.72233 24.1574 8.70784 24.1432 8.6974 24.1261C8.68696 24.1091 8.68088 24.0897 8.6797 24.0697C8.67852 24.0498 8.68227 24.0298 8.69063 24.0116C8.69898 23.9935 8.71169 23.9776 8.72761 23.9655C8.92679 23.8163 9.1261 23.6611 9.31629 23.5043C9.33319 23.4904 9.35364 23.4814 9.37533 23.4785C9.39703 23.4756 9.4191 23.4788 9.43908 23.4877C15.658 26.3259 22.3908 26.3259 28.5361 23.4877C28.5561 23.4782 28.5784 23.4746 28.6004 23.4772C28.6224 23.4799 28.6433 23.4888 28.6604 23.5028C28.8507 23.6596 29.0499 23.8163 29.2506 23.9655C29.2666 23.9775 29.2794 23.9932 29.2879 24.0113C29.2964 24.0294 29.3003 24.0494 29.2993 24.0693C29.2982 24.0893 29.2923 24.1087 29.282 24.1258C29.2717 24.143 29.2573 24.1573 29.2401 24.1675C28.293 24.7205 27.3009 25.1924 26.2744 25.5783C26.2585 25.5844 26.244 25.5938 26.2319 25.6058C26.2199 25.6179 26.2105 25.6323 26.2044 25.6482C26.1983 25.6642 26.1956 25.6812 26.1965 25.6982C26.1975 25.7153 26.202 25.7319 26.2098 25.7471C26.7783 26.8447 27.4267 27.8991 28.1495 28.9018C28.1642 28.9224 28.1849 28.9378 28.2089 28.9459C28.2328 28.954 28.2587 28.9544 28.2828 28.947C31.7005 27.9013 34.9147 26.2799 37.7869 24.1527C37.8008 24.1425 37.8125 24.1294 37.821 24.1143C37.8295 24.0993 37.8348 24.0825 37.8363 24.0653C38.6289 15.8718 36.5094 8.75461 32.2181 2.44523ZM12.6984 19.7485C10.8261 19.7485 9.28333 18.0303 9.28333 15.9201C9.28333 13.8099 10.7962 12.0916 12.6984 12.0916C14.6156 12.0916 16.1434 13.8248 16.1135 15.92C16.1135 18.0303 14.6006 19.7485 12.6984 19.7485ZM25.3251 19.7485C23.4528 19.7485 21.91 18.0303 21.91 15.9201C21.91 13.8099 23.4229 12.0916 25.3251 12.0916C27.2423 12.0916 28.7701 13.8248 28.7402 15.92C28.7402 18.0303 27.2423 19.7485 25.3251 19.7485Z" fill="url(#paint0_linear_188877_419)" fill-opacity="0.5"/>
</g>
<defs>
<filter id="filter0_ii_188877_419" x="-0.5" y="-0.5" width="39.5" height="30.4524" filterUnits="userSpaceOnUse" color-interpolation-filters="sRGB">
<feFlood flood-opacity="0" result="BackgroundImageFix"/>
<feBlend mode="normal" in="SourceGraphic" in2="BackgroundImageFix" result="shape"/>
<feColorMatrix in="SourceAlpha" type="matrix" values="0 0 0 0 0 0 0 0 0 0 0 0 0 0 0 0 0 0 127 0" result="hardAlpha"/>
<feOffset dx="-0.5" dy="-0.5"/>
<feGaussianBlur stdDeviation="0.25"/>
<feComposite in2="hardAlpha" operator="arithmetic" k2="-1" k3="1"/>
<feColorMatrix type="matrix" values="0 0 0 0 1 0 0 0 0 1 0 0 0 0 1 0 0 0 0.1 0"/>
<feBlend mode="normal" in2="shape" result="effect1_innerShadow_188877_419"/>
<feColorMatrix in="SourceAlpha" type="matrix" values="0 0 0 0 0 0 0 0 0 0 0 0 0 0 0 0 0 0 127 0" result="hardAlpha"/>
<feOffset dx="1" dy="1"/>
<feGaussianBlur stdDeviation="0.5"/>
<feComposite in2="hardAlpha" operator="arithmetic" k2="-1" k3="1"/>
<feColorMatrix type="matrix" values="0 0 0 0 0.113021 0 0 0 0 0.129167 0 0 0 0 0.145312 0 0 0 0.5 0"/>
<feBlend mode="normal" in2="effect1_innerShadow_188877_419" result="effect2_innerShadow_188877_419"/>
</filter>
<linearGradient id="paint0_linear_188877_419" x1="38" y1="31.5844" x2="5.99782" y2="-1.80122" gradientUnits="userSpaceOnUse">
<stop stop-color="#2D3134"/>
<stop offset="0.234375" stop-color="#57636E"/>
<stop offset="0.442708" stop-color="#EBEFF3"/>
<stop offset="0.682292" stop-color="#AFBBC7"/>
<stop offset="1" stop-color="#768BA2"/>
</linearGradient>
</defs>
</svg>
