<svg width="33" height="34" viewBox="0 0 33 34" fill="none" xmlns="http://www.w3.org/2000/svg">
<g filter="url(#filter0_ii_188881_476)">
<path d="M16.5 29.1846C16.7422 29.2251 17.1257 29.0428 17.6504 28.6379C18.1751 28.2734 18.7604 27.4838 19.4062 26.2689C19.931 25.1756 20.375 23.8797 20.7383 22.3814H12.2617C12.625 23.8797 13.069 25.1756 13.5938 26.2689C14.2396 27.4838 14.8249 28.2734 15.3496 28.6379C15.8743 29.0428 16.2578 29.2251 16.5 29.1846ZM11.8379 19.4658H21.2227C21.3034 18.5344 21.3438 17.5625 21.3438 16.5501C21.3438 15.5377 21.3034 14.5659 21.2227 13.6345H11.8379C11.7168 14.5659 11.6562 15.5377 11.6562 16.5501C11.6562 17.5625 11.7168 18.5344 11.8379 19.4658ZM12.2617 10.7188H20.7383C20.375 9.2205 19.931 7.92466 19.4062 6.83129C18.7604 5.61644 18.1751 4.82679 17.6504 4.46233C17.1257 4.05738 16.7422 3.87515 16.5 3.91565C16.2578 3.87515 15.8743 4.05738 15.3496 4.46233C14.8249 4.82679 14.2396 5.61644 13.5938 6.83129C13.069 7.92466 12.625 9.2205 12.2617 10.7188ZM24.1289 13.6345C24.2096 14.5659 24.25 15.5377 24.25 16.5501C24.25 17.5625 24.2096 18.5344 24.1289 19.4658H28.7305C28.9727 18.5344 29.0938 17.5625 29.0938 16.5501C29.0938 15.5377 28.9727 14.5659 28.7305 13.6345H24.1289ZM27.7012 10.7188C26.3288 8.16763 24.3307 6.28461 21.707 5.06976C22.5547 6.64907 23.2207 8.53209 23.7051 10.7188H27.7012ZM9.29492 10.7188C9.73893 8.53209 10.4049 6.64907 11.293 5.06976C8.66927 6.28461 6.67122 8.16763 5.29883 10.7188H9.29492ZM4.26953 13.6345C4.02734 14.5659 3.90625 15.5377 3.90625 16.5501C3.90625 17.5625 4.02734 18.5344 4.26953 19.4658H8.87109C8.79036 18.5344 8.75 17.5625 8.75 16.5501C8.75 15.5377 8.79036 14.5659 8.87109 13.6345H4.26953ZM21.707 28.0305C24.3307 26.8156 26.3288 24.9326 27.7012 22.3814H23.7051C23.2207 24.5681 22.5547 26.4512 21.707 28.0305ZM11.293 28.0305C10.4453 26.4512 9.7793 24.5681 9.29492 22.3814H5.29883C6.67122 24.9326 8.66927 26.8156 11.293 28.0305ZM16.5 32.1002C13.6745 32.0597 11.0911 31.3713 8.75 30.035C6.40885 28.6581 4.51172 26.7549 3.05859 24.3252C1.6862 21.855 1 19.2633 1 16.5501C1 13.8369 1.6862 11.2453 3.05859 8.77506C4.51172 6.34535 6.40885 4.44208 8.75 3.06525C11.0911 1.72892 13.6745 1.0405 16.5 1C19.3255 1.0405 21.9089 1.72892 24.25 3.06525C26.5911 4.44208 28.4883 6.34535 29.9414 8.77506C31.3138 11.2453 32 13.8369 32 16.5501C32 19.2633 31.3138 21.855 29.9414 24.3252C28.4883 26.7549 26.5911 28.6581 24.25 30.035C21.9089 31.3713 19.3255 32.0597 16.5 32.1002Z" stroke="url(#paint0_linear_188881_476)" stroke-opacity="0.5" stroke-width="2"/>
</g>
<defs>
<filter id="filter0_ii_188881_476" x="-0.5" y="-0.500122" width="34" height="34.1005" filterUnits="userSpaceOnUse" color-interpolation-filters="sRGB">
<feFlood flood-opacity="0" result="BackgroundImageFix"/>
<feBlend mode="normal" in="SourceGraphic" in2="BackgroundImageFix" result="shape"/>
<feColorMatrix in="SourceAlpha" type="matrix" values="0 0 0 0 0 0 0 0 0 0 0 0 0 0 0 0 0 0 127 0" result="hardAlpha"/>
<feOffset dx="-0.5" dy="-0.5"/>
<feGaussianBlur stdDeviation="0.25"/>
<feComposite in2="hardAlpha" operator="arithmetic" k2="-1" k3="1"/>
<feColorMatrix type="matrix" values="0 0 0 0 1 0 0 0 0 1 0 0 0 0 1 0 0 0 0.4 0"/>
<feBlend mode="normal" in2="shape" result="effect1_innerShadow_188881_476"/>
<feColorMatrix in="SourceAlpha" type="matrix" values="0 0 0 0 0 0 0 0 0 0 0 0 0 0 0 0 0 0 127 0" result="hardAlpha"/>
<feOffset dx="0.5" dy="0.5"/>
<feGaussianBlur stdDeviation="0.25"/>
<feComposite in2="hardAlpha" operator="arithmetic" k2="-1" k3="1"/>
<feColorMatrix type="matrix" values="0 0 0 0 0.127604 0 0 0 0 0.267969 0 0 0 0 0.408333 0 0 0 0.4 0"/>
<feBlend mode="normal" in2="effect1_innerShadow_188881_476" result="effect2_innerShadow_188881_476"/>
</filter>
<linearGradient id="paint0_linear_188881_476" x1="29.675" y1="1.00001" x2="0.272974" y2="37.633" gradientUnits="userSpaceOnUse">
<stop stop-color="#48647D"/>
<stop offset="0.234375" stop-color="#6B8299"/>
<stop offset="0.442708" stop-color="#DAE2EB"/>
<stop offset="0.682292" stop-color="#8CA2B7"/>
<stop offset="1" stop-color="#EDF2F7"/>
</linearGradient>
</defs>
</svg>
