<svg width="31" height="32" viewBox="0 0 31 32" fill="none" xmlns="http://www.w3.org/2000/svg">
<g filter="url(#filter0_ii_188881_1057)">
<path d="M15.5 29.0844C15.7422 29.1248 16.1257 28.9426 16.6504 28.5377C17.1751 28.1732 17.7604 27.3836 18.4062 26.1687C18.931 25.0753 19.375 23.7795 19.7383 22.2812H11.2617C11.625 23.7795 12.069 25.0753 12.5938 26.1687C13.2396 27.3836 13.8249 28.1732 14.3496 28.5377C14.8743 28.9426 15.2578 29.1248 15.5 29.0844ZM10.8379 19.3655H20.2227C20.3034 18.4342 20.3438 17.4623 20.3438 16.4499C20.3438 15.4375 20.3034 14.4656 20.2227 13.5342H10.8379C10.7168 14.4656 10.6562 15.4375 10.6562 16.4499C10.6562 17.4623 10.7168 18.4342 10.8379 19.3655ZM11.2617 10.6186H19.7383C19.375 9.12028 18.931 7.82444 18.4062 6.73108C17.7604 5.51622 17.1751 4.72657 16.6504 4.36211C16.1257 3.95716 15.7422 3.77493 15.5 3.81543C15.2578 3.77493 14.8743 3.95716 14.3496 4.36211C13.8249 4.72657 13.2396 5.51622 12.5938 6.73108C12.069 7.82444 11.625 9.12028 11.2617 10.6186ZM23.1289 13.5342C23.2096 14.4656 23.25 15.4375 23.25 16.4499C23.25 17.4623 23.2096 18.4342 23.1289 19.3655H27.7305C27.9727 18.4342 28.0938 17.4623 28.0938 16.4499C28.0938 15.4375 27.9727 14.4656 27.7305 13.5342H23.1289ZM26.7012 10.6186C25.3288 8.06741 23.3307 6.18439 20.707 4.96954C21.5547 6.54885 22.2207 8.43187 22.7051 10.6186H26.7012ZM8.29492 10.6186C8.73893 8.43187 9.40495 6.54885 10.293 4.96954C7.66927 6.18439 5.67122 8.06741 4.29883 10.6186H8.29492ZM3.26953 13.5342C3.02734 14.4656 2.90625 15.4375 2.90625 16.4499C2.90625 17.4623 3.02734 18.4342 3.26953 19.3655H7.87109C7.79036 18.4342 7.75 17.4623 7.75 16.4499C7.75 15.4375 7.79036 14.4656 7.87109 13.5342H3.26953ZM20.707 27.9302C23.3307 26.7154 25.3288 24.8324 26.7012 22.2812H22.7051C22.2207 24.4679 21.5547 26.3509 20.707 27.9302ZM10.293 27.9302C9.44531 26.3509 8.7793 24.4679 8.29492 22.2812H4.29883C5.67122 24.8324 7.66927 26.7154 10.293 27.9302ZM15.5 32C12.6745 31.9595 10.0911 31.2711 7.75 29.9348C5.40885 28.5579 3.51172 26.6547 2.05859 24.2249C0.686198 21.7547 0 19.1631 0 16.4499C0 13.7367 0.686198 11.145 2.05859 8.67484C3.51172 6.24513 5.40885 4.34187 7.75 2.96503C10.0911 1.6287 12.6745 0.940279 15.5 0.899784C18.3255 0.940279 20.9089 1.6287 23.25 2.96503C25.5911 4.34187 27.4883 6.24513 28.9414 8.67484C30.3138 11.145 31 13.7367 31 16.4499C31 19.1631 30.3138 21.7547 28.9414 24.2249C27.4883 26.6547 25.5911 28.5579 23.25 29.9348C20.9089 31.2711 18.3255 31.9595 15.5 32Z" fill="url(#paint0_linear_188881_1057)"/>
</g>
<defs>
<filter id="filter0_ii_188881_1057" x="-0.5" y="0.399902" width="32" height="32.1001" filterUnits="userSpaceOnUse" color-interpolation-filters="sRGB">
<feFlood flood-opacity="0" result="BackgroundImageFix"/>
<feBlend mode="normal" in="SourceGraphic" in2="BackgroundImageFix" result="shape"/>
<feColorMatrix in="SourceAlpha" type="matrix" values="0 0 0 0 0 0 0 0 0 0 0 0 0 0 0 0 0 0 127 0" result="hardAlpha"/>
<feOffset dx="-0.5" dy="-0.5"/>
<feGaussianBlur stdDeviation="0.25"/>
<feComposite in2="hardAlpha" operator="arithmetic" k2="-1" k3="1"/>
<feColorMatrix type="matrix" values="0 0 0 0 1 0 0 0 0 1 0 0 0 0 1 0 0 0 0.4 0"/>
<feBlend mode="normal" in2="shape" result="effect1_innerShadow_188881_1057"/>
<feColorMatrix in="SourceAlpha" type="matrix" values="0 0 0 0 0 0 0 0 0 0 0 0 0 0 0 0 0 0 127 0" result="hardAlpha"/>
<feOffset dx="0.5" dy="0.5"/>
<feGaussianBlur stdDeviation="0.25"/>
<feComposite in2="hardAlpha" operator="arithmetic" k2="-1" k3="1"/>
<feColorMatrix type="matrix" values="0 0 0 0 0.127604 0 0 0 0 0.267969 0 0 0 0 0.408333 0 0 0 0.4 0"/>
<feBlend mode="normal" in2="effect1_innerShadow_188881_1057" result="effect2_innerShadow_188881_1057"/>
</filter>
<linearGradient id="paint0_linear_188881_1057" x1="45.1855" y1="-4.93151" x2="4.01353" y2="25.4771" gradientUnits="userSpaceOnUse">
<stop offset="0.245118" stop-color="#DEE9F3"/>
<stop offset="1" stop-color="#5F83AD"/>
</linearGradient>
</defs>
</svg>
