<svg width="1843" height="1635" viewBox="0 0 1843 1635" fill="none" xmlns="http://www.w3.org/2000/svg">
<g opacity="0.2">
<path d="M255.383 1536.67L232.655 1532.67C231.337 1517.45 231.476 1497.74 233.92 1486.22L258.59 1490.35C255.395 1501.43 254.511 1521.29 255.383 1536.67ZM382.845 1604.33L246.933 1470.58L263.814 1453.42L399.726 1587.17L382.845 1604.33ZM427.613 1564.54C406.735 1549.33 373.251 1526.15 342.173 1505.05L356.96 1487.31C386.378 1506.18 417.75 1526.69 441.016 1541.88L427.613 1564.54ZM330.406 1600.42L312.194 1582.5L412.3 1480.73C421.925 1470.95 428.769 1467.91 437.754 1471.12C446.588 1474.18 456.06 1482.32 468.402 1494.46C464.12 1500.32 459.133 1511.42 456.808 1519.2C448.673 1510.31 439.943 1501.72 437.086 1499.2C434.377 1496.53 432.733 1496.4 430.216 1498.96L330.406 1600.42ZM282.225 1587.67L285.138 1560.32C310.628 1573.55 340.364 1594.82 364.557 1613.89C361.314 1618.99 356.908 1627.99 355.017 1634.12C330.981 1616.1 302.91 1597.66 282.225 1587.67ZM267.771 1572.86L248.806 1554.2C309.538 1494.56 356.708 1419.51 343.011 1406.03C339.85 1402.92 330.939 1408.67 312.413 1425.69C312.797 1417.78 310.772 1407.49 307.881 1400.79C336.952 1376.96 349.187 1375.96 362.884 1389.44C394.04 1420.1 333.81 1504.82 267.771 1572.86ZM289.472 1468.89L280.182 1446.42C323.379 1433.82 369.977 1435.53 411.436 1447.89C409.702 1455.07 408.746 1465.98 409.263 1474.49C371.975 1460.9 327.302 1457.23 289.472 1468.89Z" fill="url(#paint0_linear_188897_576)"/>
<path d="M142.574 1400.39L80.1833 1289.86L241.801 1198.59L253.635 1219.55L111.14 1300.03L150.381 1369.54L294.347 1288.24L305.662 1308.28L142.574 1400.39ZM170.297 1351.99L136.143 1291.48L152.139 1282.45L186.293 1342.95L170.297 1351.99ZM269.879 1314.91L219.427 1225.53L238.732 1214.63L289.185 1304.01L269.879 1314.91ZM139.604 1341.43L129.95 1324.33L188.971 1291L198.625 1308.1L139.604 1341.43ZM205.923 1304.71L225.045 1293.91L214.457 1275.15L195.335 1285.95L205.923 1304.71ZM199.59 1329.14L170.627 1277.83L220.271 1249.79L249.234 1301.1L199.59 1329.14ZM146.621 1428.17L141.269 1404.52C179.099 1397.22 223.08 1395.67 255.573 1402.54C251.175 1407.2 241.419 1419.99 237.691 1426.7C212.055 1420.81 177.585 1421.6 146.621 1428.17ZM205.513 1414.8L173.005 1405.75L173.085 1405.47L315.581 1324.99L327.415 1345.96L205.513 1414.8Z" fill="url(#paint1_linear_188897_576)"/>
<path d="M31.5122 1152.7L24.792 1124.56C59.7358 1118.16 160.594 1096.89 232.205 1168.59C226.868 1174.42 221.183 1184.25 217.443 1194.04C151.927 1122.41 58.7591 1147.71 31.5122 1152.7ZM30.3279 1124.1C48.048 1119.22 149.498 1090.42 168.818 996.78C176.637 1003.16 186.618 1008.6 194.278 1010.67C171.47 1109.71 59.2431 1140.64 38.4824 1147.34L30.3279 1124.1Z" fill="url(#paint2_linear_188897_576)"/>
<path d="M15.9524 860.601L16.98 837.815C51.1813 843.375 85.5665 854.228 104.276 893.97C98.4574 896.456 89.936 902.625 85.7 907.508C70.9995 872.597 42.1763 864.955 15.9524 860.601ZM50.3758 898.727L33.4012 886.122C40.6712 865.521 53.3858 841.36 63.0934 827.634L81.9568 840.535C71.4245 853.801 57.8472 878.346 50.3758 898.727ZM9.47354 812.108L10.5392 788.479C10.5392 788.479 16.8672 788.764 19.8108 789.108C67.8083 793.387 87.5409 796.392 94.0338 802.392C99.1263 806.639 100.844 810.733 101.412 816.889C102.027 821.991 101.637 830.641 101.007 839.914C94.0371 839.811 84.4309 841.915 78.1617 845.015C79.118 837.87 79.4034 831.541 79.5461 828.376C79.8808 825.643 79.3336 823.715 77.3004 821.933C73.4449 818.376 57.4996 815.754 13.2703 812.279L9.47354 812.108ZM120.398 878.63L121.444 855.423L167.638 857.507C173.545 857.773 174.196 857.38 174.377 853.371C174.463 851.472 174.777 844.51 174.872 842.4C175.053 838.392 172.56 837.434 152.971 835.916C156.968 831.657 161.001 821.902 162.974 815.649C190.712 819.226 197.608 825.668 196.923 840.858C196.752 844.656 196.314 854.36 196.133 858.369C195.249 877.99 188.107 881.684 167.014 880.733L120.398 878.63ZM127.653 900.521L133.821 880.927C152.719 883.682 172.577 888.595 184.566 899.283L172.338 917.335C162.181 908.209 144.864 903.2 127.653 900.521ZM106.052 873.332L92.1546 858.119C99.5135 844.921 111.234 828.748 120.445 821.342L136.194 837.696C127.212 844.69 114.466 860.182 106.052 873.332ZM134.311 827.886L127.008 807.051C143.533 796.803 165.467 788.49 180.567 786.423L188.638 808.985C173.768 810.64 151.019 818.281 134.311 827.886ZM5.78171 893.967L9.9588 801.349L31.0521 802.3L26.875 894.919L5.78171 893.967ZM58.8578 973.101L61.6457 911.285L80.6297 912.141L77.8418 973.958L58.8578 973.101ZM0.668857 969.843L3.39966 909.292L22.5946 910.158L19.8637 970.708L0.668857 969.843ZM87.5447 974.395L90.3326 912.579L109.527 913.445L106.74 975.261L87.5447 974.395ZM28.6786 981.465L32.1611 904.247L52.1997 905.151L48.7172 982.369L28.6786 981.465ZM117.359 964.747L119.662 913.691L183.785 916.583L181.483 967.639L161.444 966.735L162.795 936.777L138.749 935.692L137.398 965.651L117.359 964.747ZM116.845 976.14L117.778 955.464L190.339 958.737L189.406 979.412L116.845 976.14Z" fill="url(#paint3_linear_188897_576)"/>
<path d="M130.609 724.052L176.268 588.342L196.88 595.28L151.221 730.99L130.609 724.052ZM48.4735 726.49L93.0549 593.982L114.668 601.257L70.0865 733.764L48.4735 726.49ZM105.162 679.835L135.736 588.961L156.348 595.899L125.774 686.773L105.162 679.835ZM173.17 597.55L181.251 573.53C181.251 573.53 187.32 576.019 190.187 577.429C229.734 594.305 245.932 603.768 250.582 612.463C254.168 619.018 254.353 624.428 252.931 631.303C251.646 637.109 248.414 646.717 244.712 657.058C238.04 655.036 227.692 654.672 220.409 656.455C224.372 647.984 227.401 639.645 228.548 635.574C229.693 632.172 229.966 630.035 228.838 627.427C226.183 622.077 212.118 613.555 176.572 598.695L173.17 597.55ZM186.442 649.479L186.228 630.913C196.252 628.27 209.277 626.637 217.154 627.06L217.699 646.63C209.889 646.006 196.531 647.304 186.442 649.479ZM31.8014 695.922L30.6695 671.475C40.6311 667.029 54.5335 662.127 63.4849 660.683L65.1461 686.867C56.6641 687.578 42.3634 691.678 31.8014 695.922ZM171.508 711.747L175.639 691.523C189.926 692.098 207.41 695.754 218.616 699.526L214.482 721.086C203.677 716.781 185.793 712.99 171.508 711.747ZM180.076 680.984L182.069 661.154C194.892 660.122 210.982 660.635 221.127 662.267L219.597 683.367C209.387 681.267 192.964 680.419 180.076 680.984ZM155.947 736.146L169.285 718.352C185.149 728.148 201.873 740.684 210.307 756.67L190.903 770.639C184.264 757.264 170.412 744.802 155.947 736.146ZM43.9381 631.376L58.0248 608.709C109.466 645.854 152.995 694.597 164.487 761.749C157.541 762.53 145.915 765.302 139.365 767.554C130.922 707.891 90.0565 661.827 43.9381 631.376ZM91.506 598.586L98.9138 576.568C112.98 584.422 129.311 594.152 139.773 601.462L129.568 621.201C119.571 614.494 104.173 605.301 91.506 598.586ZM132.705 597.969L140.113 575.951C153.779 583.67 169.978 593.133 180.307 600.175L170.434 620.249C160.305 613.274 145.24 604.416 132.705 597.969Z" fill="url(#paint4_linear_188897_576)"/>
<path d="M128.728 478.772L225.283 338.856L240.749 349.533L144.194 489.449L128.728 478.772ZM156.687 484.73L240.768 362.89L255.191 372.847L171.11 494.687L156.687 484.73ZM165.665 516.333L273.375 360.252L289.188 371.169L181.478 527.25L165.665 516.333ZM206.208 544.579L314.637 387.456L329.929 398.013L221.5 555.136L206.208 544.579ZM178.132 426.143L193.005 404.591L234.71 433.383L219.837 454.935L178.132 426.143ZM178.255 371.313L198.606 351.489C202.319 360.981 205.216 370.166 206.868 376.695L189.995 391.479C186.821 384.925 182.095 376.53 178.255 371.313ZM230.404 562.31C243.568 541.374 263.354 509.356 282.073 478.142L296.029 488.033C278.911 518.043 260.605 549.03 247.416 571.488L230.404 562.31ZM212.058 497.808L225.972 477.647L289.398 521.434C298.608 527.792 301.166 532.637 299.041 540.922C296.742 549.086 290.678 558.244 281.683 571.28C276.097 568.963 267.815 566.838 261.618 566.152C267.416 558.865 274.013 549.305 275.519 546.752C277.318 544.145 277.223 542.796 274.964 541.236L212.058 497.808ZM226.776 460.495L246.922 456.954C238.234 479.953 221.236 509.79 206.032 533.68C202.023 531.682 195.023 529.929 190.348 529.268C204.778 506.127 219.99 478.136 226.776 460.495ZM239.991 447.293L253.785 427.305C292.345 451.36 333.922 455.428 346.463 436.884C349.167 432.593 347.053 429.337 337.748 421.63C344.156 420.152 351.548 415.76 356.47 411.973C373.893 428.364 373.986 437.153 364.51 450.884C342.68 482.517 290.74 478.223 239.991 447.293ZM309.15 426.265L327.292 412.615C337.284 443.122 331.155 481.745 319.531 516.062C314.041 515.095 302.222 514.377 295.946 514.92C308.857 484.315 316.261 450.164 309.15 426.265ZM267.085 426.992L262.891 407.417C273.617 399.682 288.922 391.259 299.041 388.493L303.798 409.483C294.213 411.847 278.332 419.617 267.085 426.992ZM134.854 447.589L141.54 425.26C149.351 423.98 159.126 424.313 165.311 425.761L159.242 449.798C153.297 448.003 142.946 447.016 134.854 447.589Z" fill="url(#paint5_linear_188897_576)"/>
<path d="M298.335 311.723L443.613 192.496L460.221 212.741L314.943 331.968L298.335 311.723ZM388.771 251.163C429.235 280.513 475.413 294.52 521.269 279.834C519.988 288.261 520.424 302.11 521.847 310.503C470.135 323.711 422.007 306.661 372.769 271.944L388.771 251.163ZM323.52 217.569L345.067 199.886C385.1 250.351 441.561 319.844 399.258 411.11C391.737 408.267 379.938 406.203 370.743 406.647C413.159 321.845 359.326 262.215 323.52 217.569Z" fill="url(#paint6_linear_188897_576)"/>
<path d="M490.68 170.282L583.728 130.098L593.019 151.62L499.97 191.804L490.68 170.282ZM578.302 91.955L600.983 82.16L648.021 191.126L625.34 200.921L578.302 91.955ZM511.133 115.902L534.008 106.023L604.23 268.696L581.355 278.575L511.133 115.902ZM615.708 52.3373L638.776 42.3749L703.474 192.251C709.417 206.017 709.465 213.588 703.191 220.898C696.639 228.098 684.18 234.399 666.346 242.101C662.253 235.817 653.967 226.744 647.825 221.575C660.787 216.437 673.193 211.079 677.264 209.321C680.947 207.731 681.996 205.897 680.406 202.214L615.708 52.3373ZM542.146 80.6555L566.517 91.2936C546.083 111.62 514.811 132.947 487.297 149.66C484.068 144.843 477.258 138.123 472.451 134.448C498.912 117.96 527.025 97.3072 542.146 80.6555ZM531.948 164.652L550.579 164.657C553.441 197.926 551.364 240 541.512 267.258C536.172 261.283 526.172 254.1 519.617 249.569C529.341 226.277 533.986 190.686 531.948 164.652ZM559.98 175.779C569.633 177.362 602.374 187.145 610.172 189.758L605.611 215.422C592.562 208.635 566.415 197.614 553.15 192.991L559.98 175.779Z" fill="url(#paint7_linear_188897_576)"/>
<path d="M709.049 33.2919L797.005 21.9635L799.324 39.9772L711.368 51.3056L709.049 33.2919ZM755.118 139.788C774.697 179.427 805.527 180.779 848.276 175.487C861.05 173.841 908.379 167.745 924.004 165.094C921.091 170.58 918.643 181.329 918.249 188.193L850.816 196.879C798.671 203.595 764.241 199.086 739.876 147.074L755.118 139.788ZM747.782 110.922L768.797 113.751C762.569 136.486 750.316 158.718 736.072 173.755C732.628 170.153 724.247 162.928 719.154 159.751C732.465 147.39 742.9 129.224 747.782 110.922ZM723.048 51.0789L738.449 51.6504C737.54 67.7376 732.908 83.0266 725.772 93.7407C722.726 91.5778 715.931 88.4072 712.128 86.9806C719.19 77.3408 722.652 64.5447 723.048 51.0789ZM751.528 125.132L788.385 120.385L790.677 138.189L744.815 144.096L751.528 125.132ZM783.569 121.005L787.967 120.439L791.628 119.115L806.049 123.646C799.167 167.758 774.604 196.899 742.951 213.965C739.636 209.708 730.991 202.091 726.108 198.887C756.592 184.314 778.945 159.503 784.027 124.566L783.569 121.005ZM741.716 14.1792L762.029 11.5628L774.702 110.01L754.389 112.626L741.716 14.1792ZM725.568 73.9641L733.306 62.9596C738.162 65.954 743.362 69.9688 746.097 73.0235L737.866 85.1562C735.131 82.1015 729.823 77.2489 725.568 73.9641ZM777.888 43.8027L792.034 44.536C791.375 57.6099 787.913 70.4059 781.817 79.2825C779.007 77.3021 772.604 73.8681 768.829 72.651C774.823 64.6392 777.352 54.5185 777.888 43.8027ZM780.247 65.4311L788.322 53.7443C793.969 57.9146 800.851 63.4162 804.504 66.9914L795.962 80.0159C792.464 75.9948 785.711 69.8378 780.247 65.4311ZM749.529 73.2203L763.16 76.5751C756.602 95.0932 742.877 115.812 728.857 127.626C725.122 123.422 718.632 117.657 714.039 115.055C728.356 105.545 742.749 88.3601 749.529 73.2203ZM769.206 75.5834C777.021 78.4097 803.309 90.7811 809.712 94.2151L798.906 111.151C790.396 104.581 769.107 91.3533 759.03 85.8373L769.206 75.5834ZM798.398 16.2478L898.5 3.35497L900.954 22.416L800.852 35.3088L798.398 16.2478ZM843.857 78.3188L869.825 74.9742L871.874 90.8933L845.906 94.2379L843.857 78.3188ZM848.165 110.13L874.133 106.785L876.155 122.495L850.187 125.84L848.165 110.13ZM831.531 144.638L902.524 135.495L904.816 153.299L833.823 162.443L831.531 144.638ZM835.614 58.9388L849.645 57.1316L861.429 148.666L847.397 150.473L835.614 58.9388ZM859.488 55.8639L873.31 54.0838L885.12 145.828L871.298 147.608L859.488 55.8639ZM838.847 19.5554L864.112 17.366C862.852 30.7303 860.653 45.0672 859.09 54.4247L840.155 54.5211C840.327 44.2782 839.959 29.846 838.847 19.5554ZM806.536 49.695L900.565 37.5844L916.123 158.444L896.856 160.925L883.563 57.6606L827.02 64.9432L840.34 168.417L822.121 170.764L806.536 49.695Z" fill="url(#paint8_linear_188897_576)"/>
<path d="M1002.65 0.667736L1028.12 4.55544L1022.6 40.6731L997.138 36.7854L1002.65 0.667736ZM960.403 18.5726L1062.47 34.1552L1059.03 56.7027L956.962 41.12L960.403 18.5726ZM1056.74 61.9077L1149 75.9927L1145.37 99.7928L1053.11 85.7079L1056.74 61.9077ZM984.794 78.4828L982.086 96.2285L1018.61 101.805L1021.32 84.0595L984.794 78.4828ZM964.988 54.309L1048.69 67.0875L1039.67 126.17L955.971 113.392L964.988 54.309ZM987.752 109.485L1011.76 113.149L1002.26 175.364C1000.64 186.011 997.801 191.987 990.308 194.902C982.878 197.4 973.839 196.447 961.733 194.599C961.949 187.582 959.866 177.437 957.659 170.904C964.724 172.197 972.447 173.376 974.743 173.726C977.071 173.868 978.002 173.369 978.32 171.281L987.752 109.485ZM956.43 121.58L978.24 129.823C971.038 149.02 960.161 168.509 948.97 180.26C945.609 175.687 937.476 167.396 932.736 163.467C942.357 153.613 950.782 137.595 956.43 121.58ZM1012.68 135.081L1033.35 131.187C1037.27 143.321 1040.46 158.764 1041.05 168.895L1019.42 173.497C1018.83 163.366 1015.97 147.12 1012.68 135.081ZM1113.77 31.092L1134.52 25.2871C1142.42 36.5335 1148.88 51.619 1150.93 61.973L1128.73 68.8394C1127.1 58.5491 1120.95 42.8691 1113.77 31.092ZM1088.05 13.4923L1112.47 17.2207L1104.32 70.6666C1097.79 113.465 1083.65 173.903 1036.54 206.874C1032.65 201.58 1023.5 192.92 1017.72 188.833C1062.17 159.3 1074.26 103.891 1079.9 66.9382L1088.05 13.4923ZM1092.06 100.627L1114.81 104.1L1102.41 185.313C1102.22 186.565 1102.21 188.059 1102.77 188.572C1103.24 189.711 1104.42 190.32 1105.68 190.511C1106.72 190.67 1108.39 190.925 1109.85 191.148C1111.1 191.34 1112.63 191.145 1113.59 190.438C1114.55 189.73 1115.5 187.738 1116.23 185.714C1117.23 182.02 1118.84 172.865 1120.25 162.186C1124.03 166.822 1131.33 172.208 1136.88 174.98C1134.74 186.19 1131.82 198.348 1129.77 203.376C1127.51 208.372 1124.68 211.571 1120.71 213.743C1117.26 215.353 1112.27 215.873 1107.47 215.14C1103.92 214.598 1098.29 213.738 1095.16 213.26C1089.52 212.399 1084.11 210.077 1080.92 205.746C1077.6 200.965 1077.33 197.08 1079.37 183.718L1092.06 100.627Z" fill="url(#paint9_linear_188897_576)"/>
<path d="M1280.05 153.35L1352.56 186.701L1347.36 198.022L1274.84 164.671L1280.05 153.35ZM1271.58 171.77L1344.09 205.121L1338.89 216.442L1266.37 183.091L1271.58 171.77ZM1254.68 186.78L1342.74 227.278L1336.3 241.285L1248.24 200.787L1254.68 186.78ZM1333.18 134.321L1351.7 148.647C1343.74 153.821 1336.05 158.419 1330.48 161.436L1316.29 149.331C1321.72 145.09 1328.99 138.899 1333.18 134.321ZM1263.5 100.877L1279.55 115C1261.05 129.968 1237.09 142.657 1217.05 148.32C1215.85 143.351 1212.28 132.411 1209.84 127.105C1227.95 123.111 1248.5 113.274 1263.5 100.877ZM1299.53 116.521L1315.86 130.54C1299.62 145.151 1278.22 158.323 1260.67 164.661C1259 159.707 1254.43 149.934 1251.34 145.027C1267.8 140.048 1285.97 129.343 1299.53 116.521ZM1314.01 151.768L1333 160.503L1307.15 216.723L1288.16 207.988L1314.01 151.768ZM1226.92 210.272L1247.83 219.889L1238.21 240.804C1236.09 245.409 1236.98 246.514 1243.31 249.425C1246.38 250.837 1259.04 256.66 1262.88 258.425C1268.06 260.807 1270 259.61 1276.22 247.594C1278.93 252.325 1286.34 259.454 1291.1 263.268C1279.81 282.252 1271.76 284.594 1256.61 277.624C1252.39 275.683 1236.27 268.271 1232.05 266.33C1211.34 256.801 1209.1 249.031 1217.21 231.378L1226.92 210.272ZM1240.63 207.745L1259.23 201.657C1268.06 211.763 1278.47 226.543 1282.37 236.243L1262.19 243.233C1258.86 233.798 1249.39 218.515 1240.63 207.745ZM1288.36 242.946L1310.08 242.709C1315.42 258.882 1319.79 279.718 1319 293.068L1295.3 293.559C1296.4 281.049 1293.25 259.607 1288.36 242.946ZM1202.76 196.603L1218.37 211.685C1207.99 223.647 1195.25 235.687 1180.36 239.764L1168.02 220.606C1180.95 217.254 1193.76 207.575 1202.76 196.603ZM1292.76 134.791L1366.81 168.848L1360.64 182.28L1277.19 143.899L1292.76 134.791ZM1273.74 145.335L1300.07 138.616L1269.72 204.621L1250.54 195.798L1273.74 145.335ZM1300.06 80.4997L1324.04 91.5287L1312.75 116.089L1288.77 105.06L1300.06 80.4997ZM1235.37 67.0205L1387.5 136.988L1378.86 155.792L1226.73 85.8245L1235.37 67.0205ZM1222.71 61.1973L1243.82 70.9027L1217.79 127.506C1203.41 158.782 1178.41 206.092 1148.18 229.381C1146.39 223.675 1140.44 212.341 1136.9 207.92C1163.97 186.436 1183.55 146.391 1196.69 117.801L1222.71 61.1973ZM1237.35 127.435L1264.79 117.277L1265 117.838L1229.01 196.123L1209.82 187.3L1237.35 127.435Z" fill="url(#paint10_linear_188897_576)"/>
<path d="M1490.8 229.541L1580.75 306.955L1565.73 324.404L1475.79 246.99L1490.8 229.541ZM1542.77 239.719L1562.29 256.524L1538.19 284.539L1518.66 267.734L1542.77 239.719ZM1534.14 306.408L1544.79 328.671C1505.01 341.239 1460.53 341.132 1420.61 331.847C1421.88 324.863 1421.97 314.074 1420.64 306.237C1456.6 316.568 1499.7 318.276 1534.14 306.408ZM1513.36 346.753L1524.38 369.887C1479.35 384.347 1431.05 381.231 1385.12 365.658C1386.55 358.812 1387.21 347.68 1386.13 339.226C1427.94 355.707 1474.72 360.584 1513.36 346.753ZM1513.35 268.732L1527.18 291.505C1508.97 296.166 1488.9 300.068 1474.19 301.62L1464.24 282.749C1479.04 280.441 1499.57 274.707 1513.35 268.732ZM1455.29 269.194L1477.74 267.061C1482.79 284.502 1488.7 309.368 1489.31 323.548L1464.52 326.456C1464.53 312.528 1459.95 287.414 1455.29 269.194ZM1446.84 366.12L1470.79 366.12C1474.86 384.384 1480.42 410.623 1481.1 425.697L1454.62 426.036C1454.9 411.789 1450.51 385.162 1446.84 366.12ZM1412.14 212.829L1459.03 253.189L1446.64 267.597L1399.74 227.237L1412.14 212.829ZM1450.63 169.059L1496.56 208.592L1484.03 223.16L1438.1 183.627L1450.63 169.059ZM1393.41 234.601L1440.3 274.961L1427.77 289.528L1380.87 249.169L1393.41 234.601ZM1424.19 183.921L1482.61 234.198L1469.53 249.407L1411.11 199.129L1424.19 183.921ZM1382.59 264.016L1421.32 297.35L1379.45 346.016L1340.72 312.682L1353.8 297.473L1376.53 317.033L1392.23 298.784L1369.5 279.224L1382.59 264.016ZM1373.94 256.577L1389.63 270.076L1342.25 325.146L1326.57 311.647L1373.94 256.577Z" fill="url(#paint11_linear_188897_576)"/>
<path d="M1625.65 440.487L1684.27 529.831L1664.67 542.692L1606.06 453.349L1625.65 440.487ZM1580.97 456.68L1649.78 561.562L1630.18 574.424L1561.37 469.542L1580.97 456.68ZM1705.91 436.561L1719.58 457.396L1553.82 566.195L1540.15 545.359L1705.91 436.561ZM1679.97 420.498L1688.06 443.226C1670.05 447.722 1649.02 449.151 1634.09 447.578C1634.49 441.255 1633.7 429.651 1632.69 423.493C1646.67 425.938 1664.66 424.487 1679.97 420.498ZM1703.84 471.515L1723.21 481.79C1717.83 497.449 1709.37 516.893 1702.03 527.266L1680.73 516.743C1688.48 506.607 1697.87 487.053 1703.84 471.515ZM1546.14 390.12C1559.8 403.633 1580.92 423.116 1600.87 441.596L1583.43 456.581C1564.57 440.16 1544.73 422.619 1529.31 408.741L1546.14 390.12ZM1604.9 355.343L1643.47 414.141L1623.88 427.002L1585.3 368.205L1604.9 355.343ZM1652.28 354.81L1665.72 375.292L1522.02 469.607C1512.13 476.095 1505.56 477.629 1498.56 473.888C1491.56 470.147 1485.47 462.019 1477.36 449.659C1482.31 445.653 1489.05 437.443 1492.61 431.319C1496.95 438.321 1501.7 445.56 1503.2 447.856C1504.82 450.328 1506.29 450.631 1508.76 449.009L1652.28 354.81Z" fill="url(#paint12_linear_188897_576)"/>
<path d="M1688.35 691.732L1666.54 699.931L1628.49 598.674L1644.87 590.974L1759.82 614.626L1768.13 636.731L1719.08 627.849L1660.16 616.73L1688.35 691.732ZM1770.38 642.716L1629.86 695.542L1619.42 667.742L1759.93 614.916L1770.38 642.716Z" fill="url(#paint13_linear_188897_576)"/>
<path d="M1682.79 823.332L1660.04 827.866L1639.98 727.138L1659.39 723.269L1719.94 760.726C1726.22 764.452 1731.65 767.294 1736.25 769.252C1740.91 771.197 1744.98 772.454 1748.46 773.022C1752.02 773.645 1755.28 773.661 1758.25 773.07C1762.69 772.183 1766.36 770.682 1769.23 768.568C1772.17 766.44 1774.23 763.752 1775.4 760.503C1776.59 757.322 1776.77 753.642 1775.94 749.461C1775.05 745.012 1773.2 741.383 1770.4 738.577C1767.61 735.838 1764.13 734.009 1759.95 733.089C1755.79 732.237 1751.28 732.294 1746.43 733.261L1740.6 704.034C1749.37 702.288 1757.81 702.779 1765.92 705.508C1774.1 708.224 1781.1 712.961 1786.94 719.72C1792.84 726.466 1796.83 735.064 1798.91 745.514C1800.96 755.83 1801.01 764.863 1799.05 772.614C1797.17 780.419 1793.46 786.766 1787.91 791.656C1782.45 796.601 1775.41 799.932 1766.78 801.652C1761.92 802.619 1757.02 802.791 1752.06 802.167C1747.17 801.53 1742.14 800.218 1736.98 798.233C1731.9 796.301 1726.63 793.776 1721.17 790.658C1715.71 787.539 1710 784.016 1704.03 780.089L1670.22 760.225L1682.79 823.332Z" fill="url(#paint14_linear_188897_576)"/>
<path d="M1817.62 876.098L1795.03 875.544L1794.55 895.179L1817.13 895.733L1817.62 876.098ZM1838.42 854.427L1836.82 919.665L1773.5 918.112L1775.1 852.873L1838.42 854.427ZM1765.61 843.557L1763.61 925.263L1741.87 924.729L1743.87 843.023L1765.61 843.557ZM1754.83 861.038L1754.27 884.05C1735.78 880.006 1713.1 874.59 1698.42 870.428L1702.77 847.93C1716.81 852.5 1738.02 857.667 1754.83 861.038ZM1730.4 866.987L1729.53 902.456L1708.63 901.944L1709.62 861.618L1730.4 866.987ZM1729.75 893.378L1729.19 916.18C1729.19 916.18 1723.29 915.824 1720.12 915.535C1678.4 911.765 1660.52 908.58 1653.91 902.503C1648.96 897.945 1647.38 893.259 1646.7 886.693C1646.2 881.188 1646.43 871.898 1646.88 862.192C1653.43 861.93 1662.78 859.624 1668.79 855.758C1667.73 864.605 1667.52 872.839 1667.43 876.639C1667.35 879.806 1667.72 881.927 1669.58 883.874C1673.28 887.768 1688.42 890.463 1726.37 893.295L1729.75 893.378ZM1830.84 982.895L1829.52 1036.52L1809.47 1036.03L1810.78 982.403L1830.84 982.895ZM1802.5 941.216L1800.35 1028.83L1780.51 1028.35L1782.66 940.729L1802.5 941.216ZM1842.51 971.773L1841.92 996.053L1792.1 994.831L1792.7 970.551L1842.51 971.773ZM1802.75 930.871L1802.2 953.461L1747.32 952.115C1716.5 951.359 1672.26 946.894 1644.66 926.57C1648.77 922.657 1656.19 913.121 1658.64 907.9C1684.17 926.272 1720.85 928.862 1747.87 929.525L1802.75 930.871ZM1767.96 954.312L1771.61 1012.07L1755.1 1013.78L1751.02 956.009L1767.96 954.312ZM1783.59 971.806L1783.04 993.975L1750.75 993.183C1745.68 993.058 1745.24 993.681 1745.12 998.748C1745.07 1000.86 1744.83 1010.36 1744.77 1013.11C1744.67 1017.12 1746.12 1018 1754.97 1018.85C1751.91 1023.21 1748.96 1031.59 1747.55 1037.26C1731.35 1034.75 1726.84 1029.14 1727.18 1015.21C1727.28 1011.2 1727.59 998.741 1727.69 994.729C1728.17 974.883 1733.56 970.579 1751.29 971.014L1783.59 971.806ZM1800.51 1022.29L1800.43 1025.46L1801.19 1029.07L1797.42 1044.82C1783.12 1042.35 1766.74 1038.78 1756.24 1035.99L1761.14 1017.1C1770.6 1018.81 1785.76 1021.08 1797.56 1022.22L1800.51 1022.29ZM1721.55 960.567L1721.04 981.68C1685.18 979.533 1658.71 974.024 1643.51 947.667C1649.28 945.062 1658.09 938.941 1662.22 933.972C1673.74 955.38 1693.29 958.817 1721.55 960.567ZM1720.78 992.025L1720.25 1013.56L1672.55 1012.39C1671.49 1012.36 1670.01 1012.54 1669.58 1012.95C1668.72 1013.56 1668.27 1014.82 1668.23 1016.09C1668.21 1016.93 1668.17 1018.83 1668.14 1020.1C1668.11 1021.15 1668.5 1022.64 1669.11 1023.29C1669.73 1024.15 1671.19 1024.82 1673.08 1025.29C1676.23 1025.79 1683.83 1026.19 1692.48 1026.4C1688.79 1030.32 1684.38 1038.03 1682.34 1043.68C1672.21 1043.22 1662.11 1041.71 1657.92 1040.34C1653.32 1038.75 1650.63 1036.36 1648.18 1032.71C1646.56 1029.92 1645.62 1025.25 1645.72 1021.03C1645.81 1017.65 1645.94 1012.16 1646.01 1009.2C1646.15 1003.71 1647.55 998.256 1651.22 994.966C1655.11 991.259 1658.72 990.503 1670.97 990.803L1720.78 992.025Z" fill="url(#paint15_linear_188897_576)"/>
<path d="M1747.18 1173.65L1735.89 1170.11L1715.98 1233.58L1727.26 1237.12L1747.18 1173.65ZM1776.19 1182.75L1765.11 1179.27L1745.19 1242.75L1756.27 1246.23L1776.19 1182.75ZM1802.67 1166.05L1768.15 1276.07L1689.18 1251.29L1723.7 1141.27L1802.67 1166.05ZM1716.93 1140.25L1709.66 1163.42L1630.49 1138.58L1637.76 1115.4L1716.93 1140.25ZM1692.58 1145.22L1679.75 1186.13L1658.59 1179.49L1671.43 1138.59L1692.58 1145.22ZM1652.92 1100.24C1649.31 1118.8 1645.05 1146.47 1640.79 1173.46L1619.12 1167.77C1622.44 1143.79 1626.06 1118.15 1629.11 1098.52L1652.92 1100.24ZM1673.19 1242.29L1649.88 1253.12C1645.96 1235.29 1644.18 1214.14 1643.53 1196.46C1648.75 1196.76 1657.48 1195.74 1663 1194.37C1664.49 1210.78 1668.5 1229.75 1673.19 1242.29ZM1698.92 1197.68L1691.58 1221.05L1627.32 1200.88C1620.67 1198.8 1619.67 1199.15 1618.22 1203.78C1617.59 1205.8 1614.93 1214.26 1614.24 1216.48C1612.85 1220.91 1615.55 1222.87 1633.7 1229.23C1628.41 1232.66 1621.82 1240.99 1618.24 1246.73C1592.95 1236.36 1587.33 1228.18 1592.33 1212.26C1593.59 1208.23 1597.07 1197.14 1598.33 1193.11C1604.59 1173.17 1612.89 1170.68 1634.45 1177.45L1698.92 1197.68ZM1808.92 1108.03L1822.68 1126.96C1814.32 1137.39 1801.39 1150.38 1792.34 1155.95L1776.82 1135.58C1785.88 1130.68 1799.75 1118.21 1808.92 1108.03ZM1757.68 1080.22L1771.84 1099.27C1763.88 1109.83 1751.22 1122.68 1742.3 1128.51L1726.79 1108.15C1735.44 1103.12 1748.85 1090.73 1757.68 1080.22ZM1656.98 1054.15C1669.52 1068.48 1690.8 1089.55 1711.41 1107.09L1690.9 1121.68C1672.12 1106.04 1652.17 1087.83 1635.65 1071.35L1656.98 1054.15Z" fill="url(#paint16_linear_188897_576)"/>
<path d="M1695.35 1403.85L1681.97 1424.12L1625.23 1386.65C1595.1 1366.75 1553.91 1335.24 1540.74 1296.93C1546.65 1295.27 1557.75 1289.95 1563.24 1286.23C1575.52 1322.44 1611.48 1348.46 1638.61 1366.38L1695.35 1403.85ZM1615 1391.03L1601.85 1410.94L1535.43 1367.07C1528.55 1362.53 1526.8 1362.89 1522.14 1369.94C1520.17 1372.94 1511.21 1386.51 1508.65 1390.39C1504.34 1396.91 1507.52 1400.52 1528.79 1415.83C1522.65 1417.85 1513.6 1424.28 1508.88 1428.75C1481.9 1407.9 1477.29 1397.26 1488.92 1379.64C1491.6 1375.58 1502.65 1358.84 1505.33 1354.79C1518.59 1334.7 1528.13 1333.66 1548.4 1347.04L1615 1391.03ZM1572.94 1440.94L1547.9 1446.68C1547.62 1423.72 1552.01 1395.99 1557.41 1372.48C1562.28 1373.92 1571.07 1375.17 1576.75 1375.38C1572.57 1397.42 1570.69 1423.26 1572.94 1440.94ZM1689.53 1412.66L1632.75 1498.67L1576.72 1461.66L1633.5 1375.66L1652.88 1388.46L1609.71 1453.84L1626.98 1465.25L1670.15 1399.86L1689.53 1412.66ZM1722.2 1345.16L1730.14 1366.86C1718.47 1375.34 1701.41 1385.08 1690.65 1388.35L1681.35 1364.49C1692.12 1361.99 1709.82 1353.18 1722.2 1345.16ZM1679.44 1303.76L1688.09 1325.16C1676.59 1333.76 1659.71 1343.62 1649.01 1347.18L1639.18 1323.74C1649.6 1321 1667.24 1311.9 1679.44 1303.76ZM1593.61 1253.65C1601.71 1270.89 1616.11 1297.36 1630.79 1319.97L1606.88 1328.21C1593.44 1307.95 1579.4 1284.76 1568.12 1263.89L1593.61 1253.65Z" fill="url(#paint17_linear_188897_576)"/>
<path d="M1540.28 1520.56L1415.29 1627.51L1399.09 1608.57L1524.08 1501.62L1540.28 1520.56ZM1486.49 1436.23L1340.33 1561.3L1324.13 1542.37L1470.3 1417.3L1486.49 1436.23ZM1530.89 1614.19L1510.19 1631.9L1392.56 1494.37L1413.26 1476.66L1530.89 1614.19Z" fill="url(#paint18_linear_188897_576)"/>
</g>
<defs>
<linearGradient id="paint0_linear_188897_576" x1="2649.08" y1="2024.49" x2="464.796" y2="92.5928" gradientUnits="userSpaceOnUse">
<stop offset="0.245118" stop-color="#DEE9F3"/>
<stop offset="1" stop-color="#5F83AD"/>
</linearGradient>
<linearGradient id="paint1_linear_188897_576" x1="2649.08" y1="2024.49" x2="464.796" y2="92.5928" gradientUnits="userSpaceOnUse">
<stop offset="0.245118" stop-color="#DEE9F3"/>
<stop offset="1" stop-color="#5F83AD"/>
</linearGradient>
<linearGradient id="paint2_linear_188897_576" x1="2649.08" y1="2024.49" x2="464.796" y2="92.5928" gradientUnits="userSpaceOnUse">
<stop offset="0.245118" stop-color="#DEE9F3"/>
<stop offset="1" stop-color="#5F83AD"/>
</linearGradient>
<linearGradient id="paint3_linear_188897_576" x1="2649.08" y1="2024.49" x2="464.796" y2="92.5928" gradientUnits="userSpaceOnUse">
<stop offset="0.245118" stop-color="#DEE9F3"/>
<stop offset="1" stop-color="#5F83AD"/>
</linearGradient>
<linearGradient id="paint4_linear_188897_576" x1="2649.08" y1="2024.49" x2="464.796" y2="92.5928" gradientUnits="userSpaceOnUse">
<stop offset="0.245118" stop-color="#DEE9F3"/>
<stop offset="1" stop-color="#5F83AD"/>
</linearGradient>
<linearGradient id="paint5_linear_188897_576" x1="2649.08" y1="2024.49" x2="464.796" y2="92.5928" gradientUnits="userSpaceOnUse">
<stop offset="0.245118" stop-color="#DEE9F3"/>
<stop offset="1" stop-color="#5F83AD"/>
</linearGradient>
<linearGradient id="paint6_linear_188897_576" x1="2649.08" y1="2024.49" x2="464.796" y2="92.5928" gradientUnits="userSpaceOnUse">
<stop offset="0.245118" stop-color="#DEE9F3"/>
<stop offset="1" stop-color="#5F83AD"/>
</linearGradient>
<linearGradient id="paint7_linear_188897_576" x1="2649.08" y1="2024.49" x2="464.796" y2="92.5928" gradientUnits="userSpaceOnUse">
<stop offset="0.245118" stop-color="#DEE9F3"/>
<stop offset="1" stop-color="#5F83AD"/>
</linearGradient>
<linearGradient id="paint8_linear_188897_576" x1="2649.08" y1="2024.49" x2="464.796" y2="92.5928" gradientUnits="userSpaceOnUse">
<stop offset="0.245118" stop-color="#DEE9F3"/>
<stop offset="1" stop-color="#5F83AD"/>
</linearGradient>
<linearGradient id="paint9_linear_188897_576" x1="2649.08" y1="2024.49" x2="464.796" y2="92.5928" gradientUnits="userSpaceOnUse">
<stop offset="0.245118" stop-color="#DEE9F3"/>
<stop offset="1" stop-color="#5F83AD"/>
</linearGradient>
<linearGradient id="paint10_linear_188897_576" x1="2649.08" y1="2024.49" x2="464.796" y2="92.5928" gradientUnits="userSpaceOnUse">
<stop offset="0.245118" stop-color="#DEE9F3"/>
<stop offset="1" stop-color="#5F83AD"/>
</linearGradient>
<linearGradient id="paint11_linear_188897_576" x1="2649.08" y1="2024.49" x2="464.796" y2="92.5928" gradientUnits="userSpaceOnUse">
<stop offset="0.245118" stop-color="#DEE9F3"/>
<stop offset="1" stop-color="#5F83AD"/>
</linearGradient>
<linearGradient id="paint12_linear_188897_576" x1="2649.08" y1="2024.49" x2="464.796" y2="92.5928" gradientUnits="userSpaceOnUse">
<stop offset="0.245118" stop-color="#DEE9F3"/>
<stop offset="1" stop-color="#5F83AD"/>
</linearGradient>
<linearGradient id="paint13_linear_188897_576" x1="2649.08" y1="2024.49" x2="464.796" y2="92.5928" gradientUnits="userSpaceOnUse">
<stop offset="0.245118" stop-color="#DEE9F3"/>
<stop offset="1" stop-color="#5F83AD"/>
</linearGradient>
<linearGradient id="paint14_linear_188897_576" x1="2649.08" y1="2024.49" x2="464.796" y2="92.5928" gradientUnits="userSpaceOnUse">
<stop offset="0.245118" stop-color="#DEE9F3"/>
<stop offset="1" stop-color="#5F83AD"/>
</linearGradient>
<linearGradient id="paint15_linear_188897_576" x1="2649.08" y1="2024.49" x2="464.796" y2="92.5928" gradientUnits="userSpaceOnUse">
<stop offset="0.245118" stop-color="#DEE9F3"/>
<stop offset="1" stop-color="#5F83AD"/>
</linearGradient>
<linearGradient id="paint16_linear_188897_576" x1="2649.08" y1="2024.49" x2="464.796" y2="92.5928" gradientUnits="userSpaceOnUse">
<stop offset="0.245118" stop-color="#DEE9F3"/>
<stop offset="1" stop-color="#5F83AD"/>
</linearGradient>
<linearGradient id="paint17_linear_188897_576" x1="2649.08" y1="2024.49" x2="464.796" y2="92.5928" gradientUnits="userSpaceOnUse">
<stop offset="0.245118" stop-color="#DEE9F3"/>
<stop offset="1" stop-color="#5F83AD"/>
</linearGradient>
<linearGradient id="paint18_linear_188897_576" x1="2649.08" y1="2024.49" x2="464.796" y2="92.5928" gradientUnits="userSpaceOnUse">
<stop offset="0.245118" stop-color="#DEE9F3"/>
<stop offset="1" stop-color="#5F83AD"/>
</linearGradient>
</defs>
</svg>
